<svg xmlns="http://www.w3.org/2000/svg" viewBox="0 0 28 32" fill="#10222F" style="margin-right: 4px">
  <path
          fill-rule="evenodd"
          clip-rule="evenodd"
          d="M11.4135 0.721676C13.014 -0.240559 14.986 -0.240558 16.5865 0.721676L25.4135 6.02835C27.014 6.99058 28 8.76886 28 10.6933V21.3067C28 23.2311 27.014 25.0094 25.4135 25.9717L16.5865 31.2783C14.986 32.2406 13.014 32.2406 11.4135 31.2783L2.58653 25.9717C0.985979 25.0094 0 23.2311 0 21.3067V10.6933C0 8.76886 0.98598 6.99058 2.58653 6.02835L11.4135 0.721676ZM15.2871 6.273C14.4906 5.79307 13.5093 5.79307 12.7129 6.273L6.62046 9.94413C5.82398 10.4241 5.33333 11.311 5.33333 12.2709V19.6132C5.33333 20.573 5.82398 21.46 6.62046 21.9399L12.7129 25.6111C13.5093 26.091 14.4906 26.091 15.2871 25.6111L21.3795 21.9399C22.176 21.46 22.6667 20.573 22.6667 19.6132V12.2709C22.6667 11.311 22.176 10.4241 21.3795 9.94413L15.2871 6.273Z">
  </path>
</svg>
